<mxfile host="app.diagrams.net" agent="Mozilla/5.0 (Windows NT 10.0; Win64; x64) AppleWebKit/537.36 (KHTML, like Gecko) Chrome/136.0.0.0 Safari/537.36" version="27.0.9">
  <diagram name="페이지-1" id="ts0-nWKjR-xCOQrDV8rk">
    <mxGraphModel dx="1507" dy="620" grid="1" gridSize="10" guides="1" tooltips="1" connect="1" arrows="1" fold="1" page="1" pageScale="1" pageWidth="827" pageHeight="1169" math="0" shadow="0">
      <root>
        <mxCell id="0" />
        <mxCell id="1" parent="0" />
        <mxCell id="DB5SrhUdUCN_xtc2LWYU-8" value="" style="edgeStyle=orthogonalEdgeStyle;rounded=0;orthogonalLoop=1;jettySize=auto;html=1;" edge="1" parent="1" source="DB5SrhUdUCN_xtc2LWYU-2" target="DB5SrhUdUCN_xtc2LWYU-4">
          <mxGeometry relative="1" as="geometry" />
        </mxCell>
        <mxCell id="DB5SrhUdUCN_xtc2LWYU-2" value="던전 입장 프로세스" style="rounded=1;whiteSpace=wrap;html=1;" vertex="1" parent="1">
          <mxGeometry x="160" y="40" width="120" height="40" as="geometry" />
        </mxCell>
        <mxCell id="DB5SrhUdUCN_xtc2LWYU-9" value="" style="edgeStyle=orthogonalEdgeStyle;rounded=0;orthogonalLoop=1;jettySize=auto;html=1;fillColor=#0000FF;strokeColor=#0000FF;" edge="1" parent="1" source="DB5SrhUdUCN_xtc2LWYU-4" target="DB5SrhUdUCN_xtc2LWYU-5">
          <mxGeometry relative="1" as="geometry" />
        </mxCell>
        <mxCell id="DB5SrhUdUCN_xtc2LWYU-12" value="YES" style="edgeLabel;html=1;align=center;verticalAlign=middle;resizable=0;points=[];" vertex="1" connectable="0" parent="DB5SrhUdUCN_xtc2LWYU-9">
          <mxGeometry x="0.0118" y="1" relative="1" as="geometry">
            <mxPoint as="offset" />
          </mxGeometry>
        </mxCell>
        <mxCell id="DB5SrhUdUCN_xtc2LWYU-18" value="" style="edgeStyle=orthogonalEdgeStyle;rounded=0;orthogonalLoop=1;jettySize=auto;html=1;strokeColor=#FF3333;" edge="1" parent="1" source="DB5SrhUdUCN_xtc2LWYU-4" target="DB5SrhUdUCN_xtc2LWYU-17">
          <mxGeometry relative="1" as="geometry" />
        </mxCell>
        <mxCell id="DB5SrhUdUCN_xtc2LWYU-19" value="NO" style="edgeLabel;html=1;align=center;verticalAlign=middle;resizable=0;points=[];" vertex="1" connectable="0" parent="DB5SrhUdUCN_xtc2LWYU-18">
          <mxGeometry x="-0.0676" y="3" relative="1" as="geometry">
            <mxPoint as="offset" />
          </mxGeometry>
        </mxCell>
        <mxCell id="DB5SrhUdUCN_xtc2LWYU-4" value="던전이 해금된 상태인가?" style="rhombus;whiteSpace=wrap;html=1;" vertex="1" parent="1">
          <mxGeometry x="160" y="120" width="120" height="80" as="geometry" />
        </mxCell>
        <mxCell id="DB5SrhUdUCN_xtc2LWYU-10" value="" style="edgeStyle=orthogonalEdgeStyle;rounded=0;orthogonalLoop=1;jettySize=auto;html=1;strokeColor=#0000FF;" edge="1" parent="1" source="DB5SrhUdUCN_xtc2LWYU-5" target="DB5SrhUdUCN_xtc2LWYU-6">
          <mxGeometry relative="1" as="geometry" />
        </mxCell>
        <mxCell id="DB5SrhUdUCN_xtc2LWYU-13" value="YES" style="edgeLabel;html=1;align=center;verticalAlign=middle;resizable=0;points=[];" vertex="1" connectable="0" parent="DB5SrhUdUCN_xtc2LWYU-10">
          <mxGeometry x="0.1294" y="-3" relative="1" as="geometry">
            <mxPoint x="2" as="offset" />
          </mxGeometry>
        </mxCell>
        <mxCell id="DB5SrhUdUCN_xtc2LWYU-5" value="플레이어 레벨이 요구 레벨보다 높은가?" style="rhombus;whiteSpace=wrap;html=1;" vertex="1" parent="1">
          <mxGeometry x="160" y="240" width="120" height="80" as="geometry" />
        </mxCell>
        <mxCell id="DB5SrhUdUCN_xtc2LWYU-11" value="" style="edgeStyle=orthogonalEdgeStyle;rounded=0;orthogonalLoop=1;jettySize=auto;html=1;fillColor=#0000FF;strokeColor=#0000FF;" edge="1" parent="1" source="DB5SrhUdUCN_xtc2LWYU-6" target="DB5SrhUdUCN_xtc2LWYU-7">
          <mxGeometry relative="1" as="geometry" />
        </mxCell>
        <mxCell id="DB5SrhUdUCN_xtc2LWYU-16" value="YES" style="edgeLabel;html=1;align=center;verticalAlign=middle;resizable=0;points=[];" vertex="1" connectable="0" parent="DB5SrhUdUCN_xtc2LWYU-11">
          <mxGeometry x="-0.1647" y="2" relative="1" as="geometry">
            <mxPoint as="offset" />
          </mxGeometry>
        </mxCell>
        <mxCell id="DB5SrhUdUCN_xtc2LWYU-6" value="입장 가능 횟수가 충분한가?&lt;span style=&quot;color: rgba(0, 0, 0, 0); font-family: monospace; font-size: 0px; text-align: start; text-wrap-mode: nowrap;&quot;&gt;%3CmxGraphModel%3E%3Croot%3E%3CmxCell%20id%3D%220%22%2F%3E%3CmxCell%20id%3D%221%22%20parent%3D%220%22%2F%3E%3CmxCell%20id%3D%222%22%20value%3D%22%EB%8D%98%EC%A0%84%EC%9D%B4%20%ED%95%B4%EA%B8%88%EB%90%9C%20%EC%83%81%ED%83%9C%EC%9D%B8%EA%B0%80%3F%22%20style%3D%22rhombus%3BwhiteSpace%3Dwrap%3Bhtml%3D1%3B%22%20vertex%3D%221%22%20parent%3D%221%22%3E%3CmxGeometry%20x%3D%2240%22%20y%3D%22270%22%20width%3D%22120%22%20height%3D%2280%22%20as%3D%22geometry%22%2F%3E%3C%2FmxCell%3E%3C%2Froot%3E%3C%2FmxGraphModel%3E&lt;/span&gt;" style="rhombus;whiteSpace=wrap;html=1;" vertex="1" parent="1">
          <mxGeometry x="160" y="360" width="120" height="80" as="geometry" />
        </mxCell>
        <mxCell id="DB5SrhUdUCN_xtc2LWYU-40" value="" style="edgeStyle=orthogonalEdgeStyle;rounded=0;orthogonalLoop=1;jettySize=auto;html=1;strokeColor=#0000FF;" edge="1" parent="1" source="DB5SrhUdUCN_xtc2LWYU-7" target="DB5SrhUdUCN_xtc2LWYU-39">
          <mxGeometry relative="1" as="geometry" />
        </mxCell>
        <mxCell id="DB5SrhUdUCN_xtc2LWYU-46" value="YES" style="edgeLabel;html=1;align=center;verticalAlign=middle;resizable=0;points=[];" vertex="1" connectable="0" parent="DB5SrhUdUCN_xtc2LWYU-40">
          <mxGeometry x="-0.0471" y="-1" relative="1" as="geometry">
            <mxPoint as="offset" />
          </mxGeometry>
        </mxCell>
        <mxCell id="DB5SrhUdUCN_xtc2LWYU-7" value="들고갈 아이템을 선택하였는가?" style="rhombus;whiteSpace=wrap;html=1;" vertex="1" parent="1">
          <mxGeometry x="160" y="480" width="120" height="80" as="geometry" />
        </mxCell>
        <mxCell id="DB5SrhUdUCN_xtc2LWYU-42" style="edgeStyle=orthogonalEdgeStyle;rounded=0;orthogonalLoop=1;jettySize=auto;html=1;exitX=1;exitY=0.5;exitDx=0;exitDy=0;entryX=0.5;entryY=0;entryDx=0;entryDy=0;" edge="1" parent="1" source="DB5SrhUdUCN_xtc2LWYU-17" target="DB5SrhUdUCN_xtc2LWYU-41">
          <mxGeometry relative="1" as="geometry">
            <mxPoint x="640" y="160" as="targetPoint" />
          </mxGeometry>
        </mxCell>
        <mxCell id="DB5SrhUdUCN_xtc2LWYU-17" value="&lt;div&gt;&lt;br&gt;&lt;/div&gt;이전 던전을 클리어 하십시오 - 오류메시지 출력" style="shape=document;whiteSpace=wrap;html=1;boundedLbl=1;" vertex="1" parent="1">
          <mxGeometry x="400" y="133.75" width="120" height="52.5" as="geometry" />
        </mxCell>
        <mxCell id="DB5SrhUdUCN_xtc2LWYU-22" value="" style="endArrow=none;dashed=1;html=1;dashPattern=1 3;strokeWidth=2;rounded=0;" edge="1" parent="1">
          <mxGeometry width="50" height="50" relative="1" as="geometry">
            <mxPoint x="260" y="140" as="sourcePoint" />
            <mxPoint x="320" y="100" as="targetPoint" />
            <Array as="points">
              <mxPoint x="290" y="100" />
            </Array>
          </mxGeometry>
        </mxCell>
        <mxCell id="DB5SrhUdUCN_xtc2LWYU-23" value="이전 단계의 던전을 클리어하면 다음 단계의 던전이 해금" style="rounded=0;whiteSpace=wrap;html=1;" vertex="1" parent="1">
          <mxGeometry x="320" y="75" width="150" height="45" as="geometry" />
        </mxCell>
        <mxCell id="DB5SrhUdUCN_xtc2LWYU-24" value="" style="endArrow=none;dashed=1;html=1;dashPattern=1 3;strokeWidth=2;rounded=0;" edge="1" parent="1">
          <mxGeometry width="50" height="50" relative="1" as="geometry">
            <mxPoint x="250" y="257.5" as="sourcePoint" />
            <mxPoint x="310" y="217.5" as="targetPoint" />
            <Array as="points">
              <mxPoint x="280" y="217.5" />
            </Array>
          </mxGeometry>
        </mxCell>
        <mxCell id="DB5SrhUdUCN_xtc2LWYU-25" value="던전은 입장 레벨이 존재, 플레이어 레벨은 이보다 높아야 입장 가능" style="rounded=0;whiteSpace=wrap;html=1;" vertex="1" parent="1">
          <mxGeometry x="310" y="192.5" width="150" height="45" as="geometry" />
        </mxCell>
        <mxCell id="DB5SrhUdUCN_xtc2LWYU-26" value="" style="edgeStyle=orthogonalEdgeStyle;rounded=0;orthogonalLoop=1;jettySize=auto;html=1;strokeColor=#FF3333;" edge="1" parent="1" target="DB5SrhUdUCN_xtc2LWYU-28">
          <mxGeometry relative="1" as="geometry">
            <mxPoint x="280" y="280" as="sourcePoint" />
          </mxGeometry>
        </mxCell>
        <mxCell id="DB5SrhUdUCN_xtc2LWYU-27" value="NO" style="edgeLabel;html=1;align=center;verticalAlign=middle;resizable=0;points=[];" vertex="1" connectable="0" parent="DB5SrhUdUCN_xtc2LWYU-26">
          <mxGeometry x="-0.0676" y="3" relative="1" as="geometry">
            <mxPoint as="offset" />
          </mxGeometry>
        </mxCell>
        <mxCell id="DB5SrhUdUCN_xtc2LWYU-43" style="edgeStyle=orthogonalEdgeStyle;rounded=0;orthogonalLoop=1;jettySize=auto;html=1;exitX=1;exitY=0.5;exitDx=0;exitDy=0;entryX=0.5;entryY=0;entryDx=0;entryDy=0;" edge="1" parent="1" source="DB5SrhUdUCN_xtc2LWYU-28" target="DB5SrhUdUCN_xtc2LWYU-41">
          <mxGeometry relative="1" as="geometry">
            <mxPoint x="620" y="280" as="targetPoint" />
          </mxGeometry>
        </mxCell>
        <mxCell id="DB5SrhUdUCN_xtc2LWYU-28" value="&lt;div&gt;&lt;br&gt;&lt;/div&gt;&lt;div&gt;레벨을 만족하지 못했습니다. - 오류메시지 출력&lt;/div&gt;" style="shape=document;whiteSpace=wrap;html=1;boundedLbl=1;" vertex="1" parent="1">
          <mxGeometry x="400" y="253.75" width="120" height="52.5" as="geometry" />
        </mxCell>
        <mxCell id="DB5SrhUdUCN_xtc2LWYU-29" value="" style="edgeStyle=orthogonalEdgeStyle;rounded=0;orthogonalLoop=1;jettySize=auto;html=1;strokeColor=#FF3333;" edge="1" parent="1" target="DB5SrhUdUCN_xtc2LWYU-31">
          <mxGeometry relative="1" as="geometry">
            <mxPoint x="280" y="400" as="sourcePoint" />
          </mxGeometry>
        </mxCell>
        <mxCell id="DB5SrhUdUCN_xtc2LWYU-30" value="NO" style="edgeLabel;html=1;align=center;verticalAlign=middle;resizable=0;points=[];" vertex="1" connectable="0" parent="DB5SrhUdUCN_xtc2LWYU-29">
          <mxGeometry x="-0.0676" y="3" relative="1" as="geometry">
            <mxPoint as="offset" />
          </mxGeometry>
        </mxCell>
        <mxCell id="DB5SrhUdUCN_xtc2LWYU-45" style="edgeStyle=orthogonalEdgeStyle;rounded=0;orthogonalLoop=1;jettySize=auto;html=1;exitX=1;exitY=0.5;exitDx=0;exitDy=0;entryX=0.5;entryY=0;entryDx=0;entryDy=0;" edge="1" parent="1" source="DB5SrhUdUCN_xtc2LWYU-31" target="DB5SrhUdUCN_xtc2LWYU-41">
          <mxGeometry relative="1" as="geometry">
            <mxPoint x="620" y="400" as="targetPoint" />
          </mxGeometry>
        </mxCell>
        <mxCell id="DB5SrhUdUCN_xtc2LWYU-31" value="&lt;div&gt;&lt;br&gt;&lt;/div&gt;&lt;div&gt;입장은 하루에 3번만 가능합니다. - 오류메시지 출력&lt;/div&gt;" style="shape=document;whiteSpace=wrap;html=1;boundedLbl=1;" vertex="1" parent="1">
          <mxGeometry x="400" y="373.75" width="120" height="52.5" as="geometry" />
        </mxCell>
        <mxCell id="DB5SrhUdUCN_xtc2LWYU-32" value="" style="edgeStyle=orthogonalEdgeStyle;rounded=0;orthogonalLoop=1;jettySize=auto;html=1;strokeColor=#FF3333;entryX=0;entryY=0.5;entryDx=0;entryDy=0;" edge="1" parent="1" target="DB5SrhUdUCN_xtc2LWYU-41">
          <mxGeometry relative="1" as="geometry">
            <mxPoint x="280" y="520" as="sourcePoint" />
            <mxPoint x="400" y="520" as="targetPoint" />
          </mxGeometry>
        </mxCell>
        <mxCell id="DB5SrhUdUCN_xtc2LWYU-33" value="NO" style="edgeLabel;html=1;align=center;verticalAlign=middle;resizable=0;points=[];" vertex="1" connectable="0" parent="DB5SrhUdUCN_xtc2LWYU-32">
          <mxGeometry x="-0.0676" y="3" relative="1" as="geometry">
            <mxPoint as="offset" />
          </mxGeometry>
        </mxCell>
        <mxCell id="DB5SrhUdUCN_xtc2LWYU-35" value="" style="endArrow=none;dashed=1;html=1;dashPattern=1 3;strokeWidth=2;rounded=0;" edge="1" parent="1">
          <mxGeometry width="50" height="50" relative="1" as="geometry">
            <mxPoint x="250" y="377.75" as="sourcePoint" />
            <mxPoint x="310" y="337.75" as="targetPoint" />
            <Array as="points">
              <mxPoint x="280" y="337.75" />
            </Array>
          </mxGeometry>
        </mxCell>
        <mxCell id="DB5SrhUdUCN_xtc2LWYU-36" value="보스 클리어 시 입장횟수 1회 차감, 총 3회 정도로 설정" style="rounded=0;whiteSpace=wrap;html=1;" vertex="1" parent="1">
          <mxGeometry x="310" y="312.75" width="150" height="45" as="geometry" />
        </mxCell>
        <mxCell id="DB5SrhUdUCN_xtc2LWYU-37" value="" style="endArrow=none;dashed=1;html=1;dashPattern=1 3;strokeWidth=2;rounded=0;" edge="1" parent="1">
          <mxGeometry width="50" height="50" relative="1" as="geometry">
            <mxPoint x="250" y="497" as="sourcePoint" />
            <mxPoint x="310" y="457" as="targetPoint" />
            <Array as="points">
              <mxPoint x="280" y="457" />
            </Array>
          </mxGeometry>
        </mxCell>
        <mxCell id="DB5SrhUdUCN_xtc2LWYU-38" value="플레이어 레벨별로 던전에 들고갈 수 있는 아이템 개수가 정해짐" style="rounded=0;whiteSpace=wrap;html=1;" vertex="1" parent="1">
          <mxGeometry x="310" y="432" width="150" height="45" as="geometry" />
        </mxCell>
        <mxCell id="DB5SrhUdUCN_xtc2LWYU-48" value="" style="edgeStyle=orthogonalEdgeStyle;rounded=0;orthogonalLoop=1;jettySize=auto;html=1;" edge="1" parent="1" source="DB5SrhUdUCN_xtc2LWYU-39" target="DB5SrhUdUCN_xtc2LWYU-47">
          <mxGeometry relative="1" as="geometry" />
        </mxCell>
        <mxCell id="DB5SrhUdUCN_xtc2LWYU-39" value="아이템 선택 프로세스" style="shape=process;whiteSpace=wrap;html=1;backgroundOutline=1;" vertex="1" parent="1">
          <mxGeometry x="160" y="600" width="120" height="50" as="geometry" />
        </mxCell>
        <mxCell id="DB5SrhUdUCN_xtc2LWYU-41" value="입장 불가" style="rounded=0;whiteSpace=wrap;html=1;" vertex="1" parent="1">
          <mxGeometry x="560" y="497.5" width="120" height="45" as="geometry" />
        </mxCell>
        <mxCell id="DB5SrhUdUCN_xtc2LWYU-47" value="현 프로세스 종료" style="rounded=1;whiteSpace=wrap;html=1;" vertex="1" parent="1">
          <mxGeometry x="160" y="690" width="120" height="40" as="geometry" />
        </mxCell>
      </root>
    </mxGraphModel>
  </diagram>
</mxfile>
